<?xml version="1.0" encoding="UTF-8" standalone="no"?>
<!DOCTYPE svg PUBLIC "-//W3C//DTD SVG 1.1//EN" "http://www.w3.org/Graphics/SVG/1.1/DTD/svg11.dtd">
<svg width="100%" height="100%" viewBox="0 0 200 200" version="1.1" xmlns="http://www.w3.org/2000/svg" xmlns:xlink="http://www.w3.org/1999/xlink" xml:space="preserve" xmlns:serif="http://www.serif.com/" style="fill-rule:evenodd;clip-rule:evenodd;stroke-linejoin:round;stroke-miterlimit:2;fill:#F5F5F4">
    <g transform="matrix(1.3751,0,0,1.3751,-30.9238,-21.6191)">
        <g transform="matrix(1.04129,0,0,1.04129,-3.84261,-3.65222)">
            <path d="M25.287,60.295L25.287,45.228L131.262,45.228L120.564,60.295L68.85,60.295L68.85,125.173L51.748,125.173L51.748,60.295L25.287,60.295Z" style="fill-rule:nonzero;"/>
        </g>
        <g transform="matrix(1.00546,0,0,1.00546,70.5412,-0.843157)">
            <path d="M61.961,133.558C54.702,133.53 48.463,131.744 43.244,128.199C38.025,124.654 34.016,119.519 31.216,112.795C28.417,106.07 27.031,97.982 27.059,88.528C27.059,79.103 28.459,71.07 31.258,64.431C34.058,57.791 38.067,52.733 43.286,49.259C48.505,45.784 54.73,44.047 61.961,44.047C69.192,44.047 75.416,45.791 80.635,49.28C85.855,52.769 89.871,57.826 92.684,64.452C95.498,71.078 96.891,79.103 96.862,88.528C96.862,98.01 95.463,106.113 92.663,112.837C89.864,119.561 85.862,124.696 80.657,128.241C75.452,131.786 69.22,133.558 61.961,133.558ZM61.961,118.408C66.913,118.408 70.866,115.918 73.82,110.938C76.774,105.958 78.237,98.488 78.209,88.528C78.209,81.973 77.541,76.515 76.204,72.154C74.868,67.793 72.983,64.515 70.549,62.32C68.115,60.126 65.253,59.029 61.961,59.029C57.037,59.029 53.098,61.49 50.144,66.414C47.19,71.338 45.699,78.709 45.671,88.528C45.671,95.168 46.339,100.704 47.675,105.135C49.012,109.566 50.904,112.886 53.352,115.095C55.799,117.303 58.669,118.408 61.961,118.408Z" style="fill-rule:nonzero;"/>
        </g>
        <g transform="matrix(1.5415,0,0,1,-38.2221,0)">
            <path d="M90.744,81.312L90.767,95.576L65.458,95.576L65.458,81.312L90.744,81.312Z" style="fill-rule:nonzero;"/>
        </g>
    </g>
</svg>
